<?xml version="1.0" encoding="UTF-8" standalone="no"?>
<!-- Generated by Microsoft Visio, SVG Export ospf-md5-auth-initial-topology.svg Page-1 -->

<svg
   width="6.49512in"
   height="1.28483in"
   viewBox="0 0 467.648 92.5079"
   xml:space="preserve"
   color-interpolation-filters="sRGB"
   class="st17"
   version="1.1"
   id="svg68"
   sodipodi:docname="ospf-md5-auth-initial-topology.svg"
   inkscape:version="1.4.3 (0d15f75042, 2025-12-25)"
   inkscape:export-filename="ospf-md5-auth-initial-topology.png"
   inkscape:export-xdpi="96"
   inkscape:export-ydpi="96"
   xmlns:inkscape="http://www.inkscape.org/namespaces/inkscape"
   xmlns:sodipodi="http://sodipodi.sourceforge.net/DTD/sodipodi-0.dtd"
   xmlns="http://www.w3.org/2000/svg"
   xmlns:svg="http://www.w3.org/2000/svg"
   xmlns:v="http://schemas.microsoft.com/visio/2003/SVGExtensions/"><defs
   id="defs68" /><sodipodi:namedview
   id="namedview68"
   pagecolor="#505050"
   bordercolor="#eeeeee"
   borderopacity="1"
   inkscape:showpageshadow="0"
   inkscape:pageopacity="0"
   inkscape:pagecheckerboard="0"
   inkscape:deskcolor="#505050"
   inkscape:document-units="in"
   inkscape:zoom="2.9012166"
   inkscape:cx="311.9381"
   inkscape:cy="61.698255"
   inkscape:window-width="1920"
   inkscape:window-height="1117"
   inkscape:window-x="0"
   inkscape:window-y="0"
   inkscape:window-maximized="1"
   inkscape:current-layer="group216-1"
   inkscape:export-bgcolor="#ffffffff" />
	<v:documentProperties
   v:langID="1033"
   v:viewMarkup="false" />

	<style
   type="text/css"
   id="style1">
	<![CDATA[
		.st1 {stroke:#a5a5a5;stroke-linecap:round;stroke-linejoin:round;stroke-width:1}
		.st2 {fill:none;stroke:none;stroke-linecap:round;stroke-linejoin:round;stroke-width:0.75}
		.st3 {fill:#ffffff;font-family:Arial;font-size:1.00001em}
		.st4 {fill:#0e6f9c;stroke:none;stroke-linecap:round;stroke-linejoin:round;stroke-width:0.75}
		.st5 {fill:none;stroke:#f2f2f2;stroke-linecap:round;stroke-linejoin:round;stroke-width:0.594974}
		.st6 {fill:#1082b8;stroke:none;stroke-linecap:round;stroke-linejoin:round;stroke-width:0.75}
		.st7 {fill:none;stroke:#ffffff;stroke-linecap:round;stroke-linejoin:round;stroke-width:1}
		.st8 {fill:#ffffff;stroke:none;stroke-linecap:round;stroke-linejoin:round;stroke-width:0.75}
		.st9 {fill:none}
		.st10 {stroke:#f2f2f2;stroke-linecap:round;stroke-linejoin:round;stroke-width:0.594974}
		.st11 {fill:#ffffff;font-family:Arial;font-size:1.16666em}
		.st12 {fill:#f2f2f2;stroke:#000000;stroke-linecap:round;stroke-linejoin:round;stroke-width:0.999996}
		.st13 {fill:#000000;font-family:Arial;font-size:0.75em}
		.st14 {font-size:1em;font-weight:bold}
		.st15 {fill:#31859b;font-size:1em}
		.st16 {fill:#31859b;font-size:1em;font-style:italic}
		.st17 {fill:none;fill-rule:evenodd;font-size:12px;overflow:visible;stroke-linecap:square;stroke-miterlimit:3}
	]]>
	</style>

	<g
   v:mID="0"
   v:index="1"
   v:groupContext="foregroundPage"
   id="g68">
		<title
   id="title1">Page-1</title>
		<v:pageProperties
   v:drawingScale="0.0393701"
   v:pageScale="0.0393701"
   v:drawingUnits="24"
   v:shadowOffsetX="9"
   v:shadowOffsetY="-9" />
		<g
   id="group216-1"
   transform="translate(0.386488,-0.375)"
   v:mID="216"
   v:groupContext="group">
			<title
   id="title2">Sheet.216</title>
			<g
   id="shape107-2"
   v:mID="107"
   v:groupContext="shape"
   transform="translate(97.8119,-16.8247) rotate(-0.000742352)">
				<title
   id="title3">Sheet.107</title>
				<path
   d="M0 92.51 L74.63 92.51"
   class="st1"
   id="path3" />
			</g>
			<g
   id="shape179-5"
   v:mID="179"
   v:groupContext="shape"
   transform="translate(192.85,-4.55834)">
				<title
   id="title4">Sheet.179</title>
				<desc
   id="desc4">SW1</desc>
				<v:userDefs />
				<v:textBlock
   v:margins="rect(4,4,4,4)"
   v:tabSpace="42.5197" />
				<v:textRect
   cx="26.6162"
   cy="86.5814"
   width="53.24"
   height="11.8514" />
				<rect
   x="0"
   y="80.6564"
   width="53.2325"
   height="11.8514"
   class="st2"
   id="rect4" />
				<text
   x="11.27"
   y="89.88"
   class="st3"
   v:langID="1033"
   id="text4"><v:paragraph
   v:spLine="-1.1"
   v:horizAlign="1" /><v:tabList />Vlan1</text>			</g>
			<g
   id="group187-8"
   v:mID="187"
   v:groupContext="group">
				<title
   id="title5">Sheet.187</title>
				<g
   id="shape34-9"
   v:mID="34"
   v:groupContext="shape"
   transform="translate(0.113512,1.42109E-14)">
					<title
   id="title6">Sheet.34</title>
					<path
   d="M74.35 79.76 C74.35 79.76 74.35 79.76 74.35 79.76 C74.35 86.82 57.66 92.51 37.23 92.51 C16.68 92.51          0 86.82 0 79.76 C0 72.7 16.68 67.01 37.23 67.01 C57.66 67.01 74.35 72.7 74.35 79.76 Z"
   class="st4"
   id="path6" />
				</g>
				<g
   id="shape35-11"
   v:mID="35"
   v:groupContext="shape"
   transform="translate(0.113512,1.42109E-14)">
					<title
   id="title7">Sheet.35</title>
					<path
   d="M74.35 79.76 C74.35 79.76 74.35 79.76 74.35 79.76 C74.35 86.82 57.66 92.51 37.23 92.51 C16.68 92.51          0 86.82 0 79.76 C0 72.7 16.68 67.01 37.23 67.01 C57.66 67.01 74.35 72.7 74.35 79.76 Z"
   class="st5"
   id="path7" />
				</g>
				<g
   id="shape36-13"
   v:mID="36"
   v:groupContext="shape"
   transform="translate(7.99361E-15,-12.4076)">
					<title
   id="title8">Sheet.36</title>
					<path
   d="M0 74.29 L0 92.51 L74.47 92.51 L74.47 74.29 L0 74.29 Z"
   class="st4"
   id="path8" />
				</g>
				<g
   id="shape37-15"
   v:mID="37"
   v:groupContext="shape"
   transform="translate(0.113512,-18.213)">
					<title
   id="title9">Sheet.37</title>
					<path
   d="M74.35 79.76 C74.35 79.76 74.35 79.76 74.35 79.76 C74.35 86.82 57.66 92.51 37.23 92.51 C16.68 92.51          0 86.82 0 79.76 C0 72.7 16.68 67.01 37.23 67.01 C57.66 67.01 74.35 72.7 74.35 79.76 Z"
   class="st6"
   id="path9" />
				</g>
				<g
   id="shape38-17"
   v:mID="38"
   v:groupContext="shape"
   transform="translate(0.113512,-18.213)">
					<title
   id="title10">Sheet.38</title>
					<path
   d="M74.35 79.76 C74.35 79.76 74.35 79.76 74.35 79.76 C74.35 86.82 57.66 92.51 37.23 92.51 C16.68 92.51          0 86.82 0 79.76 C0 72.7 16.68 67.01 37.23 67.01 C57.66 67.01 74.35 72.7 74.35 79.76 Z"
   class="st7"
   id="path10" />
				</g>
				<g
   id="shape39-19"
   v:mID="39"
   v:groupContext="shape"
   transform="translate(38.2536,-31.9866)">
					<title
   id="title11">Sheet.39</title>
					<path
   d="M0 90.69 L5.45 92.51 L18.39 87.38 L24.4 88.86 L21.23 84.2 L5.67 84.2 L12.14 85.79 L0 90.69 Z"
   class="st6"
   id="path11" />
				</g>
				<g
   id="shape40-21"
   v:mID="40"
   v:groupContext="shape"
   transform="translate(11.4647,-22.0832)">
					<title
   id="title12">Sheet.40</title>
					<path
   d="M24.52 86.01 L19.07 84.2 L6.13 89.44 L0 87.96 L3.29 92.51 L18.84 92.51 L12.26 90.92 L24.52 86.01 Z"
   class="st6"
   id="path12" />
				</g>
				<g
   id="shape41-23"
   v:mID="41"
   v:groupContext="shape"
   transform="translate(12.8269,-32.2143)">
					<title
   id="title13">Sheet.41</title>
					<path
   d="M0 86.01 L5.45 84.2 L18.39 89.44 L24.52 87.96 L21.34 92.51 L5.67 92.51 L12.26 90.92 L0 86.01 Z"
   class="st6"
   id="path13" />
				</g>
				<g
   id="shape42-25"
   v:mID="42"
   v:groupContext="shape"
   transform="translate(37.4589,-21.5141)">
					<title
   id="title14">Sheet.42</title>
					<path
   d="M24.4 90.69 L18.96 92.51 L6.01 87.38 L0 88.86 L3.18 84.2 L18.73 84.2 L12.26 85.79 L24.4 90.69 Z"
   class="st6"
   id="path14" />
				</g>
				<g
   id="shape43-27"
   v:mID="43"
   v:groupContext="shape"
   transform="translate(38.7076,-31.5312)">
					<title
   id="title15">Sheet.43</title>
					<path
   d="M0 90.69 L5.45 92.51 L18.39 87.38 L24.4 88.86 L21.23 84.2 L5.67 84.2 L12.14 85.79 L0 90.69 Z"
   class="st8"
   id="path15" />
				</g>
				<g
   id="shape44-29"
   v:mID="44"
   v:groupContext="shape"
   transform="translate(11.9188,-21.6279)">
					<title
   id="title16">Sheet.44</title>
					<path
   d="M24.52 86.01 L19.07 84.2 L6.13 89.44 L0 87.96 L3.29 92.51 L18.84 92.51 L12.26 90.92 L24.52 86.01 Z"
   class="st8"
   id="path16" />
				</g>
				<g
   id="shape45-31"
   v:mID="45"
   v:groupContext="shape"
   transform="translate(13.2809,-31.7589)">
					<title
   id="title17">Sheet.45</title>
					<path
   d="M0 86.01 L5.45 84.2 L18.39 89.44 L24.52 87.96 L21.34 92.51 L5.67 92.51 L12.26 90.92 L0 86.01 Z"
   class="st8"
   id="path17" />
				</g>
				<g
   id="shape46-33"
   v:mID="46"
   v:groupContext="shape"
   transform="translate(37.913,-21.0588)">
					<title
   id="title18">Sheet.46</title>
					<path
   d="M24.4 90.69 L18.96 92.51 L6.01 87.38 L0 88.86 L3.18 84.2 L18.73 84.2 L12.26 85.79 L24.4 90.69 Z"
   class="st8"
   id="path18" />
				</g>
				<g
   id="shape47-35"
   v:mID="47"
   v:groupContext="shape"
   transform="translate(74.4639,-12.4076)">
					<title
   id="title19">Sheet.47</title>
					<path
   d="M0 74.18 L0 92.51 L0 74.18 Z"
   class="st9"
   id="path19" />
					<path
   d="M0 74.18 L0 92.51"
   class="st10"
   id="path20" />
				</g>
				<g
   id="shape48-38"
   v:mID="48"
   v:groupContext="shape"
   transform="translate(0.215787,-0.154109)">
					<title
   id="title20">Sheet.48</title>
					<desc
   id="desc20">SW1</desc>
					<v:userDefs />
					<v:textBlock
   v:margins="rect(4,4,4,4)"
   v:tabSpace="42.5197" />
					<v:textRect
   cx="37.46"
   cy="84.1669"
   width="74.93"
   height="16.6799" />
					<rect
   x="0"
   y="75.828"
   width="74.9201"
   height="16.6799"
   class="st2"
   id="rect20" />
					<text
   x="16.05"
   y="88.02"
   class="st11"
   v:langID="1033"
   id="text20"><v:paragraph
   v:spLine="-1.1"
   v:horizAlign="1" /><v:tabList />1.1.1.1</text>				</g>
			</g>
			<g
   id="group188-41"
   transform="translate(195.875,1.42109E-14)"
   v:mID="188"
   v:groupContext="group">
				<title
   id="title21">Sheet.188</title>
				<g
   id="shape50-42"
   v:mID="50"
   v:groupContext="shape"
   transform="translate(0.113512,1.42109E-14)">
					<title
   id="title22">Sheet.50</title>
					<path
   d="M74.35 79.76 C74.35 79.76 74.35 79.76 74.35 79.76 C74.35 86.82 57.66 92.51 37.23 92.51 C16.68 92.51          0 86.82 0 79.76 C0 72.7 16.68 67.01 37.23 67.01 C57.66 67.01 74.35 72.7 74.35 79.76 Z"
   class="st4"
   id="path22" />
				</g>
				<g
   id="shape51-44"
   v:mID="51"
   v:groupContext="shape"
   transform="translate(0.113512,1.42109E-14)">
					<title
   id="title23">Sheet.51</title>
					<path
   d="M74.35 79.76 C74.35 79.76 74.35 79.76 74.35 79.76 C74.35 86.82 57.66 92.51 37.23 92.51 C16.68 92.51          0 86.82 0 79.76 C0 72.7 16.68 67.01 37.23 67.01 C57.66 67.01 74.35 72.7 74.35 79.76 Z"
   class="st5"
   id="path23" />
				</g>
				<g
   id="shape52-46"
   v:mID="52"
   v:groupContext="shape"
   transform="translate(1.59872E-14,-12.4076)">
					<title
   id="title24">Sheet.52</title>
					<path
   d="M0 74.29 L0 92.51 L74.47 92.51 L74.47 74.29 L0 74.29 Z"
   class="st4"
   id="path24" />
				</g>
				<g
   id="shape53-48"
   v:mID="53"
   v:groupContext="shape"
   transform="translate(0.113512,-18.213)">
					<title
   id="title25">Sheet.53</title>
					<path
   d="M74.35 79.76 C74.35 79.76 74.35 79.76 74.35 79.76 C74.35 86.82 57.66 92.51 37.23 92.51 C16.68 92.51          0 86.82 0 79.76 C0 72.7 16.68 67.01 37.23 67.01 C57.66 67.01 74.35 72.7 74.35 79.76 Z"
   class="st6"
   id="path25" />
				</g>
				<g
   id="shape54-50"
   v:mID="54"
   v:groupContext="shape"
   transform="translate(0.113512,-18.213)">
					<title
   id="title26">Sheet.54</title>
					<path
   d="M74.35 79.76 C74.35 79.76 74.35 79.76 74.35 79.76 C74.35 86.82 57.66 92.51 37.23 92.51 C16.68 92.51          0 86.82 0 79.76 C0 72.7 16.68 67.01 37.23 67.01 C57.66 67.01 74.35 72.7 74.35 79.76 Z"
   class="st7"
   id="path26" />
				</g>
				<g
   id="shape55-52"
   v:mID="55"
   v:groupContext="shape"
   transform="translate(38.2536,-31.9866)">
					<title
   id="title27">Sheet.55</title>
					<path
   d="M0 90.69 L5.45 92.51 L18.39 87.38 L24.4 88.86 L21.23 84.2 L5.67 84.2 L12.14 85.79 L0 90.69 Z"
   class="st6"
   id="path27" />
				</g>
				<g
   id="shape56-54"
   v:mID="56"
   v:groupContext="shape"
   transform="translate(11.4647,-22.0832)">
					<title
   id="title28">Sheet.56</title>
					<path
   d="M24.52 86.01 L19.07 84.2 L6.13 89.44 L0 87.96 L3.29 92.51 L18.84 92.51 L12.26 90.92 L24.52 86.01 Z"
   class="st6"
   id="path28" />
				</g>
				<g
   id="shape57-56"
   v:mID="57"
   v:groupContext="shape"
   transform="translate(12.8269,-32.2143)">
					<title
   id="title29">Sheet.57</title>
					<path
   d="M0 86.01 L5.45 84.2 L18.39 89.44 L24.52 87.96 L21.34 92.51 L5.67 92.51 L12.26 90.92 L0 86.01 Z"
   class="st6"
   id="path29" />
				</g>
				<g
   id="shape58-58"
   v:mID="58"
   v:groupContext="shape"
   transform="translate(37.4589,-21.5141)">
					<title
   id="title30">Sheet.58</title>
					<path
   d="M24.4 90.69 L18.96 92.51 L6.01 87.38 L0 88.86 L3.18 84.2 L18.73 84.2 L12.26 85.79 L24.4 90.69 Z"
   class="st6"
   id="path30" />
				</g>
				<g
   id="shape59-60"
   v:mID="59"
   v:groupContext="shape"
   transform="translate(38.7076,-31.5312)">
					<title
   id="title31">Sheet.59</title>
					<path
   d="M0 90.69 L5.45 92.51 L18.39 87.38 L24.4 88.86 L21.23 84.2 L5.67 84.2 L12.14 85.79 L0 90.69 Z"
   class="st8"
   id="path31" />
				</g>
				<g
   id="shape60-62"
   v:mID="60"
   v:groupContext="shape"
   transform="translate(11.9188,-21.6279)">
					<title
   id="title32">Sheet.60</title>
					<path
   d="M24.52 86.01 L19.07 84.2 L6.13 89.44 L0 87.96 L3.29 92.51 L18.84 92.51 L12.26 90.92 L24.52 86.01 Z"
   class="st8"
   id="path32" />
				</g>
				<g
   id="shape61-64"
   v:mID="61"
   v:groupContext="shape"
   transform="translate(13.2809,-31.7589)">
					<title
   id="title33">Sheet.61</title>
					<path
   d="M0 86.01 L5.45 84.2 L18.39 89.44 L24.52 87.96 L21.34 92.51 L5.67 92.51 L12.26 90.92 L0 86.01 Z"
   class="st8"
   id="path33" />
				</g>
				<g
   id="shape62-66"
   v:mID="62"
   v:groupContext="shape"
   transform="translate(37.913,-21.0588)">
					<title
   id="title34">Sheet.62</title>
					<path
   d="M24.4 90.69 L18.96 92.51 L6.01 87.38 L0 88.86 L3.18 84.2 L18.73 84.2 L12.26 85.79 L24.4 90.69 Z"
   class="st8"
   id="path34" />
				</g>
				<g
   id="shape63-68"
   v:mID="63"
   v:groupContext="shape"
   transform="translate(74.4639,-12.4076)">
					<title
   id="title35">Sheet.63</title>
					<path
   d="M0 74.18 L0 92.51 L0 74.18 Z"
   class="st9"
   id="path35" />
					<path
   d="M0 74.18 L0 92.51"
   class="st10"
   id="path36" />
				</g>
				<g
   id="shape64-71"
   v:mID="64"
   v:groupContext="shape"
   transform="translate(0.215787,-0.154109)">
					<title
   id="title36">Sheet.64</title>
					<desc
   id="desc36">SW1</desc>
					<v:userDefs />
					<v:textBlock
   v:margins="rect(4,4,4,4)"
   v:tabSpace="42.5197" />
					<v:textRect
   cx="37.46"
   cy="84.1669"
   width="74.93"
   height="16.6799" />
					<rect
   x="0"
   y="75.828"
   width="74.9201"
   height="16.6799"
   class="st2"
   id="rect36" />
					<text
   x="16.05"
   y="88.02"
   class="st11"
   v:langID="1033"
   id="text36"><v:paragraph
   v:spLine="-1.1"
   v:horizAlign="1" /><v:tabList />2.2.2.2</text>				</g>
			</g>
			<g
   id="shape190-74"
   v:mID="190"
   v:groupContext="shape"
   transform="translate(391.864,-1.42109E-14)">
				<title
   id="title37">Sheet.190</title>
				<path
   d="M74.35 79.76 C74.35 79.76 74.35 79.76 74.35 79.76 C74.35 86.82 57.66 92.51 37.23 92.51 C16.68 92.51 0 86.82         0 79.76 C0 72.7 16.68 67.01 37.23 67.01 C57.66 67.01 74.35 72.7 74.35 79.76 Z"
   class="st4"
   id="path37" />
			</g>
			<g
   id="shape191-76"
   v:mID="191"
   v:groupContext="shape"
   transform="translate(391.864,-1.42109E-14)">
				<title
   id="title38">Sheet.191</title>
				<path
   d="M74.35 79.76 C74.35 79.76 74.35 79.76 74.35 79.76 C74.35 86.82 57.66 92.51 37.23 92.51 C16.68 92.51 0 86.82         0 79.76 C0 72.7 16.68 67.01 37.23 67.01 C57.66 67.01 74.35 72.7 74.35 79.76 Z"
   class="st5"
   id="path38" />
			</g>
			<g
   id="shape192-78"
   v:mID="192"
   v:groupContext="shape"
   transform="translate(391.751,-12.4076)">
				<title
   id="title39">Sheet.192</title>
				<path
   d="M0 74.29 L0 92.51 L74.47 92.51 L74.47 74.29 L0 74.29 Z"
   class="st4"
   id="path39" />
			</g>
			<g
   id="shape193-80"
   v:mID="193"
   v:groupContext="shape"
   transform="translate(391.864,-18.213)">
				<title
   id="title40">Sheet.193</title>
				<path
   d="M74.35 79.76 C74.35 79.76 74.35 79.76 74.35 79.76 C74.35 86.82 57.66 92.51 37.23 92.51 C16.68 92.51 0 86.82         0 79.76 C0 72.7 16.68 67.01 37.23 67.01 C57.66 67.01 74.35 72.7 74.35 79.76 Z"
   class="st6"
   id="path40" />
			</g>
			<g
   id="shape194-82"
   v:mID="194"
   v:groupContext="shape"
   transform="translate(391.864,-18.213)">
				<title
   id="title41">Sheet.194</title>
				<path
   d="M74.35 79.76 C74.35 79.76 74.35 79.76 74.35 79.76 C74.35 86.82 57.66 92.51 37.23 92.51 C16.68 92.51 0 86.82         0 79.76 C0 72.7 16.68 67.01 37.23 67.01 C57.66 67.01 74.35 72.7 74.35 79.76 Z"
   class="st7"
   id="path41" />
			</g>
			<g
   id="shape195-84"
   v:mID="195"
   v:groupContext="shape"
   transform="translate(430.004,-31.9866)">
				<title
   id="title42">Sheet.195</title>
				<path
   d="M0 90.69 L5.45 92.51 L18.39 87.38 L24.4 88.86 L21.23 84.2 L5.67 84.2 L12.14 85.79 L0 90.69 Z"
   class="st6"
   id="path42" />
			</g>
			<g
   id="shape196-86"
   v:mID="196"
   v:groupContext="shape"
   transform="translate(403.216,-22.0832)">
				<title
   id="title43">Sheet.196</title>
				<path
   d="M24.52 86.01 L19.07 84.2 L6.13 89.44 L0 87.96 L3.29 92.51 L18.84 92.51 L12.26 90.92 L24.52 86.01 Z"
   class="st6"
   id="path43" />
			</g>
			<g
   id="shape197-88"
   v:mID="197"
   v:groupContext="shape"
   transform="translate(404.578,-32.2143)">
				<title
   id="title44">Sheet.197</title>
				<path
   d="M0 86.01 L5.45 84.2 L18.39 89.44 L24.52 87.96 L21.34 92.51 L5.67 92.51 L12.26 90.92 L0 86.01 Z"
   class="st6"
   id="path44" />
			</g>
			<g
   id="shape198-90"
   v:mID="198"
   v:groupContext="shape"
   transform="translate(429.21,-21.5141)">
				<title
   id="title45">Sheet.198</title>
				<path
   d="M24.4 90.69 L18.96 92.51 L6.01 87.38 L0 88.86 L3.18 84.2 L18.73 84.2 L12.26 85.79 L24.4 90.69 Z"
   class="st6"
   id="path45" />
			</g>
			<g
   id="shape199-92"
   v:mID="199"
   v:groupContext="shape"
   transform="translate(430.458,-31.5312)">
				<title
   id="title46">Sheet.199</title>
				<path
   d="M0 90.69 L5.45 92.51 L18.39 87.38 L24.4 88.86 L21.23 84.2 L5.67 84.2 L12.14 85.79 L0 90.69 Z"
   class="st8"
   id="path46" />
			</g>
			<g
   id="shape200-94"
   v:mID="200"
   v:groupContext="shape"
   transform="translate(403.67,-21.6279)">
				<title
   id="title47">Sheet.200</title>
				<path
   d="M24.52 86.01 L19.07 84.2 L6.13 89.44 L0 87.96 L3.29 92.51 L18.84 92.51 L12.26 90.92 L24.52 86.01 Z"
   class="st8"
   id="path47" />
			</g>
			<g
   id="shape201-96"
   v:mID="201"
   v:groupContext="shape"
   transform="translate(405.032,-31.7589)">
				<title
   id="title48">Sheet.201</title>
				<path
   d="M0 86.01 L5.45 84.2 L18.39 89.44 L24.52 87.96 L21.34 92.51 L5.67 92.51 L12.26 90.92 L0 86.01 Z"
   class="st8"
   id="path48" />
			</g>
			<g
   id="shape202-98"
   v:mID="202"
   v:groupContext="shape"
   transform="translate(429.664,-21.0588)">
				<title
   id="title49">Sheet.202</title>
				<path
   d="M24.4 90.69 L18.96 92.51 L6.01 87.38 L0 88.86 L3.18 84.2 L18.73 84.2 L12.26 85.79 L24.4 90.69 Z"
   class="st8"
   id="path49" />
			</g>
			<g
   id="shape203-100"
   v:mID="203"
   v:groupContext="shape"
   transform="translate(466.215,-12.4076)">
				<title
   id="title50">Sheet.203</title>
				<path
   d="M0 74.18 L0 92.51 L0 74.18 Z"
   class="st9"
   id="path50" />
				<path
   d="M0 74.18 L0 92.51"
   class="st10"
   id="path51" />
			</g>
			<g
   id="shape204-103"
   v:mID="204"
   v:groupContext="shape"
   transform="translate(391.967,-0.154109)">
				<title
   id="title51">Sheet.204</title>
				<desc
   id="desc51">SW1</desc>
				<v:userDefs />
				<v:textBlock
   v:margins="rect(4,4,4,4)"
   v:tabSpace="42.5197" />
				<v:textRect
   cx="37.46"
   cy="84.1669"
   width="74.93"
   height="16.6799" />
				<rect
   x="0"
   y="75.828"
   width="74.9201"
   height="16.6799"
   class="st2"
   id="rect51" />
				<text
   x="16.05"
   y="88.02"
   class="st11"
   v:langID="1033"
   id="text51"><v:paragraph
   v:spLine="-1.1"
   v:horizAlign="1" /><v:tabList />3.3.3.3</text>			</g>
			<g
   id="shape206-106"
   v:mID="206"
   v:groupContext="shape"
   transform="translate(77.4038,-10.4561)">
				<title
   id="title52">Rectangle.96</title>
				<desc
   id="desc52">C</desc>
				<v:userDefs>
					<v:ud
   v:nameU="visVersion"
   v:val="VT0(15):26" />
				</v:userDefs>
				<v:textBlock
   v:margins="rect(0,0,0,0)"
   v:tabSpace="42.5195" />
				<v:textRect
   cx="10.2038"
   cy="86.13"
   width="20.41"
   height="12.7558" />
				<path
   d="M-0 91.09 A1.41735 1.41735 -180 0 0 1.42 92.51 L18.99 92.51 A1.41735 1.41735 -180 0 0 20.41 91.09 L20.41         81.17 A1.41735 1.41735 -180 0 0 18.99 79.75 L1.42 79.75 A1.41735 1.41735 -180 0 0 -0 81.17 L0 91.09         Z"
   class="st12"
   id="path52" />
				<text
   x="3.95"
   y="88.83"
   class="st13"
   v:langID="1033"
   id="text52"><v:paragraph
   v:horizAlign="1" /><v:tabList />0/0</text>			</g>
			<g
   id="shape207-109"
   v:mID="207"
   v:groupContext="shape"
   transform="translate(172.44,-10.4561)">
				<title
   id="title53">Rectangle.207</title>
				<desc
   id="desc53">C</desc>
				<v:userDefs>
					<v:ud
   v:nameU="visVersion"
   v:val="VT0(15):26" />
				</v:userDefs>
				<v:textBlock
   v:margins="rect(0,0,0,0)"
   v:tabSpace="42.5195" />
				<v:textRect
   cx="10.2038"
   cy="86.13"
   width="20.41"
   height="12.7558" />
				<path
   d="M-0 91.09 A1.41735 1.41735 -180 0 0 1.42 92.51 L18.99 92.51 A1.41735 1.41735 -180 0 0 20.41 91.09 L20.41         81.17 A1.41735 1.41735 -180 0 0 18.99 79.75 L1.42 79.75 A1.41735 1.41735 -180 0 0 -0 81.17 L0 91.09         Z"
   class="st12"
   id="path53" />
				<text
   x="3.95"
   y="88.83"
   class="st13"
   v:langID="1033"
   id="text53"><v:paragraph
   v:horizAlign="1" /><v:tabList />0/0</text>			</g>
			<g
   id="shape210-112"
   v:mID="210"
   v:groupContext="shape"
   transform="translate(293.843,-17.2843) rotate(-0.000742352)">
				<title
   id="title54">Sheet.210</title>
				<path
   d="M0 92.51 L74.63 92.51"
   class="st1"
   id="path54" />
			</g>
			<g
   id="shape211-115"
   v:mID="211"
   v:groupContext="shape"
   transform="translate(273.435,-10.9157)">
				<title
   id="title55">Rectangle.211</title>
				<desc
   id="desc55">C</desc>
				<v:userDefs>
					<v:ud
   v:nameU="visVersion"
   v:val="VT0(15):26" />
				</v:userDefs>
				<v:textBlock
   v:margins="rect(0,0,0,0)"
   v:tabSpace="42.5195" />
				<v:textRect
   cx="10.2038"
   cy="86.13"
   width="20.41"
   height="12.7558" />
				<path
   d="M-0 91.09 A1.41735 1.41735 -180 0 0 1.42 92.51 L18.99 92.51 A1.41735 1.41735 -180 0 0 20.41 91.09 L20.41         81.17 A1.41735 1.41735 -180 0 0 18.99 79.75 L1.42 79.75 A1.41735 1.41735 -180 0 0 -0 81.17 L0 91.09         Z"
   class="st12"
   id="path55" />
				<text
   x="3.95"
   y="88.83"
   class="st13"
   v:langID="1033"
   id="text55"><v:paragraph
   v:horizAlign="1" /><v:tabList />0/1</text>			</g>
			<g
   id="shape212-118"
   v:mID="212"
   v:groupContext="shape"
   transform="translate(368.471,-10.9157)">
				<title
   id="title56">Rectangle.212</title>
				<desc
   id="desc56">C</desc>
				<v:userDefs>
					<v:ud
   v:nameU="visVersion"
   v:val="VT0(15):26" />
				</v:userDefs>
				<v:textBlock
   v:margins="rect(0,0,0,0)"
   v:tabSpace="42.5195" />
				<v:textRect
   cx="10.2038"
   cy="86.13"
   width="20.41"
   height="12.7558" />
				<path
   d="M-0 91.09 A1.41735 1.41735 -180 0 0 1.42 92.51 L18.99 92.51 A1.41735 1.41735 -180 0 0 20.41 91.09 L20.41         81.17 A1.41735 1.41735 -180 0 0 18.99 79.75 L1.42 79.75 A1.41735 1.41735 -180 0 0 -0 81.17 L0 91.09         Z"
   class="st12"
   id="path56" />
				<text
   x="3.95"
   y="88.83"
   class="st13"
   v:langID="1033"
   id="text56"><v:paragraph
   v:horizAlign="1" /><v:tabList />0/0</text>			</g>
			<g
   id="shape213-121"
   v:mID="213"
   v:groupContext="shape"
   transform="translate(78.7769,-29.1591)">
				<title
   id="title57">Sheet.213</title>
				<desc
   id="desc57">- MD5 Authentication configured at the interface level. - Pas...</desc>
				<v:textBlock
   v:margins="rect(5.66929,2.83465,5.66929,5.66929)"
   v:tabSpace="42.5197"
   v:verticalAlign="0" />
				<v:textRect
   cx="61.9591"
   cy="61.271"
   width="123.92"
   height="62.4738" />
				<path
   d="M39.37 79.83 L123.92 79.83 L123.92 30.03 L0 30.03 L0 79.83 L21.44 79.83 L30.41 92.51 L39.37 79.83 Z"
   class="st12"
   id="path57" />
				<text
   x="5.6700001"
   y="43.130001"
   class="st13"
   v:langID="1033"
   id="text62"><tspan
     sodipodi:role="line"
     id="tspan69"
     x="5.6700001"
     y="43.130001"><v:paragraph
   v:spLine="-1.1" /><v:tabList />- MD5 认证 <v:newlineChar /></tspan><tspan
     sodipodi:role="line"
     id="tspan70"
     x="5.6700001"
     y="55.318211">配置于接口级别。<tspan
   x="5.6700001"
   dy="1.102em"
   class="st14"
   id="tspan57">- 口令：xfossdotcom</tspan></tspan></text>			</g>
			<g
   id="shape215-130"
   v:mID="215"
   v:groupContext="shape"
   transform="translate(274.808,-29.1591)">
				<title
   id="title62">Sheet.215</title>
				<desc
   id="desc62">- MD5 Authentication configured at the area level. - Password...</desc>
				<v:textBlock
   v:margins="rect(5.66929,2.83465,5.66929,5.66929)"
   v:tabSpace="42.5197"
   v:verticalAlign="0" />
				<v:textRect
   cx="61.9591"
   cy="61.271"
   width="123.92"
   height="62.4738" />
				<path
   d="M39.37 79.83 L123.92 79.83 L123.92 30.03 L0 30.03 L0 79.83 L21.44 79.83 L30.41 92.51 L39.37 79.83 Z"
   class="st12"
   id="path62" />
				<text
   x="5.6700001"
   y="43.130001"
   class="st13"
   v:langID="1033"
   id="text68"><tspan
     sodipodi:role="line"
     id="tspan71"
     x="5.6700001"
     y="43.130001"><v:paragraph
   v:spLine="-1.1" /><v:tabList />- MD5 认证 <v:newlineChar /></tspan><tspan
     sodipodi:role="line"
     id="tspan72"
     x="5.6700001"
     y="55.318211">配置于区域级别。<tspan
   x="5.6700001"
   dy="1.102em"
   class="st14"
   id="tspan63">- 口令：netcomm</tspan></tspan></text>			</g>
		</g>
	</g>
</svg>
