<?xml version="1.0" encoding="UTF-8" standalone="no"?>
<!-- Generated by Microsoft Visio, SVG Export ospf-md5-authentication.svg Page-1 -->

<svg
   width="5.77854in"
   height="1.14409in"
   viewBox="0 0 416.055 82.3743"
   xml:space="preserve"
   color-interpolation-filters="sRGB"
   class="st20"
   version="1.1"
   id="svg30"
   sodipodi:docname="ospf-md5-authentication.svg"
   inkscape:export-filename="ospf-md5-authentication.png"
   inkscape:export-xdpi="96"
   inkscape:export-ydpi="96"
   inkscape:version="1.4.3 (0d15f75042, 2025-12-25)"
   xmlns:inkscape="http://www.inkscape.org/namespaces/inkscape"
   xmlns:sodipodi="http://sodipodi.sourceforge.net/DTD/sodipodi-0.dtd"
   xmlns:xlink="http://www.w3.org/1999/xlink"
   xmlns="http://www.w3.org/2000/svg"
   xmlns:svg="http://www.w3.org/2000/svg"
   xmlns:v="http://schemas.microsoft.com/visio/2003/SVGExtensions/"><sodipodi:namedview
   id="namedview30"
   pagecolor="#505050"
   bordercolor="#eeeeee"
   borderopacity="1"
   inkscape:showpageshadow="0"
   inkscape:pageopacity="0"
   inkscape:pagecheckerboard="0"
   inkscape:deskcolor="#505050"
   inkscape:document-units="in"
   inkscape:export-bgcolor="#ffffffff"
   inkscape:zoom="1.630494"
   inkscape:cx="272.92342"
   inkscape:cy="64.704317"
   inkscape:window-width="1920"
   inkscape:window-height="1117"
   inkscape:window-x="0"
   inkscape:window-y="0"
   inkscape:window-maximized="1"
   inkscape:current-layer="shape217-57" />
	<v:documentProperties
   v:langID="1033"
   v:viewMarkup="false" />

	<style
   type="text/css"
   id="style1">
	<![CDATA[
		.st1 {stroke:#a5a5a5;stroke-linecap:round;stroke-linejoin:round;stroke-width:1}
		.st2 {fill:#000000;stroke:none;stroke-linecap:butt;stroke-width:1.17188}
		.st3 {fill:#0e6f9c;stroke:none;stroke-linecap:round;stroke-linejoin:round;stroke-width:0.75}
		.st4 {fill:none;stroke:#f2f2f2;stroke-linecap:round;stroke-linejoin:round;stroke-width:0.594974}
		.st5 {fill:#1082b8;stroke:none;stroke-linecap:round;stroke-linejoin:round;stroke-width:0.75}
		.st6 {fill:none;stroke:#ffffff;stroke-linecap:round;stroke-linejoin:round;stroke-width:1}
		.st7 {fill:#ffffff;stroke:none;stroke-linecap:round;stroke-linejoin:round;stroke-width:0.75}
		.st8 {fill:none}
		.st9 {stroke:#f2f2f2;stroke-linecap:round;stroke-linejoin:round;stroke-width:0.594974}
		.st10 {fill:none;stroke:none;stroke-linecap:round;stroke-linejoin:round;stroke-width:0.75}
		.st11 {fill:#ffffff;font-family:Arial;font-size:1.16666em}
		.st12 {fill:#fee599;stroke:#000000;stroke-linecap:round;stroke-linejoin:round;stroke-width:1}
		.st13 {fill:#000000;font-family:Arial;font-size:0.75em;font-weight:bold}
		.st14 {font-size:0.888885em}
		.st15 {fill:#c05046;font-size:0.888885em;font-weight:normal}
		.st16 {marker-end:url(#mrkr2-56);stroke:#000000;stroke-linecap:round;stroke-linejoin:round;stroke-width:1}
		.st17 {fill:#000000;fill-opacity:1;stroke:#000000;stroke-opacity:1;stroke-width:0.28409090909091}
		.st18 {fill:#000000;font-family:Arial;font-size:1.00001em}
		.st19 {font-size:1em}
		.st20 {fill:none;fill-rule:evenodd;font-size:12px;overflow:visible;stroke-linecap:square;stroke-miterlimit:3}
	]]>
	</style>

	<defs
   id="Markers">
		<g
   id="lend2">
			<path
   d="M 1 1 L 0 0 L 1 -1 L 1 1 "
   style="stroke:none"
   id="path1" />
		</g>
		<marker
   id="mrkr2-56"
   class="st17"
   v:arrowType="2"
   v:arrowSize="2"
   v:setback="3.52"
   refX="-3.52"
   orient="auto"
   markerUnits="strokeWidth"
   overflow="visible">
			<use
   xlink:href="#lend2"
   transform="scale(-3.52,-3.52) "
   id="use1" />
		</marker>
	</defs>
	<g
   v:mID="0"
   v:index="1"
   v:groupContext="foregroundPage"
   id="g30">
		<title
   id="title1">Page-1</title>
		<v:pageProperties
   v:drawingScale="0.0393701"
   v:pageScale="0.0393701"
   v:drawingUnits="24"
   v:shadowOffsetX="9"
   v:shadowOffsetY="-9" />
		<g
   id="group221-1"
   transform="translate(0.386488,-0.375)"
   v:mID="221"
   v:groupContext="group">
			<title
   id="title2">Sheet.221</title>
			<g
   id="shape107-2"
   v:mID="107"
   v:groupContext="shape"
   transform="translate(74.4639,-55.2822)">
				<title
   id="title3">Sheet.107</title>
				<path
   d="M0 82.37 L177.84 82.37"
   class="st1"
   id="path3" />
			</g>
			<g
   id="group139-5"
   transform="translate(174.349,-7.98187)"
   v:mID="139"
   v:groupContext="group">
				<title
   id="title4">Sheet.139</title>
				<g
   id="group140-6"
   v:mID="140"
   v:groupContext="group">
					<title
   id="title5">Sheet.140</title>
					<g
   id="shape141-7"
   v:mID="141"
   v:groupContext="shape"
   transform="translate(0,-11.2936)">
						<title
   id="title6">Sheet.141</title>
						<path
   d="M39.48 70.88 C38.8 66.88 38.05 62.54 37.83 61.3 C37.27 58.29 33.3 56.6 30.36 58.77 C28.81 59.91           27.43 60 26.69 60 C25.96 60 25.15 60.16 23.03 58.77 C19.97 56.77 16.11 58.29 15.56 61.3 C15.33           62.54 14.59 66.88 13.91 70.88 C5.62 71.91 0 73.93 0 76.25 C0 79.63 11.95 82.37 26.69 82.37 C41.44           82.37 53.39 79.63 53.39 76.25 C53.39 73.93 47.77 71.91 39.48 70.88 Z"
   class="st2"
   id="path6" />
					</g>
					<g
   id="shape142-9"
   v:mID="142"
   v:groupContext="shape"
   transform="translate(11.3784,1.84741E-13)">
						<title
   id="title7">Sheet.142</title>
						<path
   d="M0 72.2 L0.79 81.22 C4.91 81.92 9.1 82.28 13.27 82.37 L15.31 79.58 L17.36 82.37 C21.53 82.28 25.72           81.92 29.84 81.22 L30.63 72.2 C25.59 73.17 20.42 73.61 15.31 73.61 C10.21 73.61 5.05 73.17 0           72.2 ZM8.09 79.66 C4.6 79.49 4.38 75.3 4.38 75.3 L12.21 76.83 C12.21 76.83 11.58 79.82 8.09           79.66 ZM26.25 75.3 C26.25 75.3 26.03 79.49 22.54 79.66 C19.05 79.82 18.42 76.83 18.42 76.83           L26.25 75.3 Z"
   class="st2"
   id="path7" />
					</g>
				</g>
			</g>
			<g
   id="group187-11"
   transform="translate(7.99361E-15,-35.4397)"
   v:mID="187"
   v:groupContext="group">
				<title
   id="title8">Sheet.187</title>
				<g
   id="shape34-12"
   v:mID="34"
   v:groupContext="shape"
   transform="translate(0.113512,0)">
					<title
   id="title9">Sheet.34</title>
					<path
   d="M74.35 69.62 C74.35 69.62 74.35 69.62 74.35 69.62 C74.35 76.68 57.66 82.37 37.23 82.37 C16.68 82.37          0 76.68 0 69.62 C0 62.56 16.68 56.87 37.23 56.87 C57.66 56.87 74.35 62.56 74.35 69.62 Z"
   class="st3"
   id="path9" />
				</g>
				<g
   id="shape35-14"
   v:mID="35"
   v:groupContext="shape"
   transform="translate(0.113512,0)">
					<title
   id="title10">Sheet.35</title>
					<path
   d="M74.35 69.62 C74.35 69.62 74.35 69.62 74.35 69.62 C74.35 76.68 57.66 82.37 37.23 82.37 C16.68 82.37          0 76.68 0 69.62 C0 62.56 16.68 56.87 37.23 56.87 C57.66 56.87 74.35 62.56 74.35 69.62 Z"
   class="st4"
   id="path10" />
				</g>
				<g
   id="shape36-16"
   v:mID="36"
   v:groupContext="shape"
   transform="translate(7.99361E-15,-12.4076)">
					<title
   id="title11">Sheet.36</title>
					<path
   d="M0 64.16 L0 82.37 L74.47 82.37 L74.47 64.16 L0 64.16 Z"
   class="st3"
   id="path11" />
				</g>
				<g
   id="shape37-18"
   v:mID="37"
   v:groupContext="shape"
   transform="translate(0.113512,-18.213)">
					<title
   id="title12">Sheet.37</title>
					<path
   d="M74.35 69.62 C74.35 69.62 74.35 69.62 74.35 69.62 C74.35 76.68 57.66 82.37 37.23 82.37 C16.68 82.37          0 76.68 0 69.62 C0 62.56 16.68 56.87 37.23 56.87 C57.66 56.87 74.35 62.56 74.35 69.62 Z"
   class="st5"
   id="path12" />
				</g>
				<g
   id="shape38-20"
   v:mID="38"
   v:groupContext="shape"
   transform="translate(0.113512,-18.213)">
					<title
   id="title13">Sheet.38</title>
					<path
   d="M74.35 69.62 C74.35 69.62 74.35 69.62 74.35 69.62 C74.35 76.68 57.66 82.37 37.23 82.37 C16.68 82.37          0 76.68 0 69.62 C0 62.56 16.68 56.87 37.23 56.87 C57.66 56.87 74.35 62.56 74.35 69.62 Z"
   class="st6"
   id="path13" />
				</g>
				<g
   id="shape39-22"
   v:mID="39"
   v:groupContext="shape"
   transform="translate(38.2536,-31.9866)">
					<title
   id="title14">Sheet.39</title>
					<path
   d="M0 80.56 L5.45 82.37 L18.39 77.25 L24.4 78.73 L21.23 74.06 L5.67 74.06 L12.14 75.66 L0 80.56 Z"
   class="st5"
   id="path14" />
				</g>
				<g
   id="shape40-24"
   v:mID="40"
   v:groupContext="shape"
   transform="translate(11.4647,-22.0832)">
					<title
   id="title15">Sheet.40</title>
					<path
   d="M24.52 75.88 L19.07 74.06 L6.13 79.3 L0 77.82 L3.29 82.37 L18.84 82.37 L12.26 80.78 L24.52 75.88 Z"
   class="st5"
   id="path15" />
				</g>
				<g
   id="shape41-26"
   v:mID="41"
   v:groupContext="shape"
   transform="translate(12.8269,-32.2143)">
					<title
   id="title16">Sheet.41</title>
					<path
   d="M0 75.88 L5.45 74.06 L18.39 79.3 L24.52 77.82 L21.34 82.37 L5.67 82.37 L12.26 80.78 L0 75.88 Z"
   class="st5"
   id="path16" />
				</g>
				<g
   id="shape42-28"
   v:mID="42"
   v:groupContext="shape"
   transform="translate(37.4589,-21.5141)">
					<title
   id="title17">Sheet.42</title>
					<path
   d="M24.4 80.56 L18.96 82.37 L6.01 77.25 L0 78.73 L3.18 74.06 L18.73 74.06 L12.26 75.66 L24.4 80.56 Z"
   class="st5"
   id="path17" />
				</g>
				<g
   id="shape43-30"
   v:mID="43"
   v:groupContext="shape"
   transform="translate(38.7076,-31.5312)">
					<title
   id="title18">Sheet.43</title>
					<path
   d="M0 80.56 L5.45 82.37 L18.39 77.25 L24.4 78.73 L21.23 74.06 L5.67 74.06 L12.14 75.66 L0 80.56 Z"
   class="st7"
   id="path18" />
				</g>
				<g
   id="shape44-32"
   v:mID="44"
   v:groupContext="shape"
   transform="translate(11.9188,-21.6279)">
					<title
   id="title19">Sheet.44</title>
					<path
   d="M24.52 75.88 L19.07 74.06 L6.13 79.3 L0 77.82 L3.29 82.37 L18.84 82.37 L12.26 80.78 L24.52 75.88 Z"
   class="st7"
   id="path19" />
				</g>
				<g
   id="shape45-34"
   v:mID="45"
   v:groupContext="shape"
   transform="translate(13.2809,-31.7589)">
					<title
   id="title20">Sheet.45</title>
					<path
   d="M0 75.88 L5.45 74.06 L18.39 79.3 L24.52 77.82 L21.34 82.37 L5.67 82.37 L12.26 80.78 L0 75.88 Z"
   class="st7"
   id="path20" />
				</g>
				<g
   id="shape46-36"
   v:mID="46"
   v:groupContext="shape"
   transform="translate(37.913,-21.0588)">
					<title
   id="title21">Sheet.46</title>
					<path
   d="M24.4 80.56 L18.96 82.37 L6.01 77.25 L0 78.73 L3.18 74.06 L18.73 74.06 L12.26 75.66 L24.4 80.56 Z"
   class="st7"
   id="path21" />
				</g>
				<g
   id="shape47-38"
   v:mID="47"
   v:groupContext="shape"
   transform="translate(74.4639,-12.4076)">
					<title
   id="title22">Sheet.47</title>
					<path
   d="M0 64.04 L0 82.37 L0 64.04 Z"
   class="st8"
   id="path22" />
					<path
   d="M0 64.04 L0 82.37"
   class="st9"
   id="path23" />
				</g>
				<g
   id="shape48-41"
   v:mID="48"
   v:groupContext="shape"
   transform="translate(0.215787,-0.154109)">
					<title
   id="title23">Sheet.48</title>
					<desc
   id="desc23">SW1</desc>
					<v:userDefs />
					<v:textBlock
   v:margins="rect(4,4,4,4)"
   v:tabSpace="42.5197" />
					<v:textRect
   cx="37.46"
   cy="74.0333"
   width="74.93"
   height="16.6799" />
					<rect
   x="0"
   y="65.6944"
   width="74.9201"
   height="16.6799"
   class="st10"
   id="rect23" />
					<text
   x="16.05"
   y="77.88"
   class="st11"
   v:langID="1033"
   id="text23"><v:paragraph
   v:spLine="-1.1"
   v:horizAlign="1" /><v:tabList />1.1.1.1</text>				</g>
			</g>
			<g
   id="shape211-44"
   v:mID="211"
   v:groupContext="shape"
   transform="translate(82.2225,-33.0946)">
				<title
   id="title24">Rectangle.211</title>
				<desc
   id="desc24">OSPF Hello Packet Auth type:2 Auth Crypt Data: 7b1d1185b83581...</desc>
				<v:userDefs>
					<v:ud
   v:nameU="visVersion"
   v:val="VT0(15):26" />
				</v:userDefs>
				<v:textBlock
   v:margins="rect(3,3,3,3)"
   v:tabSpace="42.5197"
   v:verticalAlign="0" />
				<v:textRect
   cx="46.063"
   cy="58.1719"
   width="92.13"
   height="48.4047" />
				<rect
   x="0"
   y="33.9696"
   width="92.126"
   height="48.4047"
   rx="1.41732"
   ry="1.41732"
   class="st12"
   id="rect24" />
				<text
   x="5.8"
   y="44.39"
   class="st13"
   v:langID="1033"
   id="text27"><v:paragraph
   v:spLine="-1.1"
   v:horizAlign="1" /><v:tabList />OSPF Hello Packet<v:newlineChar /><tspan
   x="24.06"
   dy="1.134em"
   class="st14"
   id="tspan24">Auth type:2<v:newlineChar /></tspan><tspan
   x="14.29"
   dy="1.1em"
   class="st14"
   id="tspan25">Auth Crypt Data: </tspan><tspan
   x="3.8"
   dy="1.1em"
   class="st15"
   id="tspan26">7b1d1185b835814de78</tspan><tspan
   x="18.26"
   dy="1.1em"
   class="st15"
   id="tspan27">3483f686e982d</tspan></text>			</g>
			<g
   id="shape215-51"
   v:mID="215"
   v:groupContext="shape"
   transform="translate(174.349,-55.2822)">
				<title
   id="title27">Sheet.215</title>
				<path
   d="M0 82.37 L4.98 82.37"
   class="st16"
   id="path27" />
			</g>
			<g
   id="shape217-57"
   v:mID="217"
   v:groupContext="shape"
   transform="translate(227.734,0)">
				<title
   id="title28">Sheet.217</title>
				<desc
   id="desc28">If a malicious person captures the OSPF packet in transit, it...</desc>
				<v:textBlock
   v:margins="rect(4,4,4,4)"
   v:tabSpace="42.5197" />
				<v:textRect
   cx="93.7795"
   cy="58.1719"
   width="187.56"
   height="48.4047" />
				<rect
   x="0"
   y="33.9696"
   width="187.559"
   height="48.4047"
   class="st10"
   id="rect28" />
				<text
   x="4"
   y="47.369999"
   class="st18"
   v:langID="1033"
   id="text29"><v:paragraph /><v:tabList /></text>			<text
   xml:space="preserve"
   style="font-size:9px;font-family:'思源宋体 CN';-inkscape-font-specification:'思源宋体 CN, Normal';writing-mode:lr-tb;direction:ltr;fill:#000000;stroke-width:0.75"
   x="16.590689"
   y="49.133141"
   id="text30"><tspan
     sodipodi:role="line"
     id="tspan30"
     style="stroke-width:0.75"
     x="16.590689"
     y="49.133141">当某恶意人士捕获传输中的 OSPF 数据包</tspan><tspan
     sodipodi:role="line"
     style="stroke-width:0.75"
     x="16.590689"
     y="60.383141"
     id="tspan31">时，就无法看到口令。</tspan></text></g>
			<g
   id="group219-62"
   transform="translate(141.75,-23.0753)"
   v:mID="219"
   v:groupContext="group">
				<title
   id="title29">Sheet.219</title>
				<g
   id="shape220-63"
   v:mID="220"
   v:groupContext="shape">
					<title
   id="title30">Sheet.220</title>
					<path
   d="M28.6 77.3 L23.69 72.39 C23.42 72.81 23.12 73.21 22.8 73.6 L20.99 71.79 C21.07 71.69 21.15 71.59 21.22          71.48 C21.27 71.41 21.32 71.34 21.37 71.27 C21.38 71.26 21.39 71.25 21.39 71.23 C21.44 71.16 21.49          71.09 21.54 71.02 C21.64 70.86 21.74 70.7 21.84 70.54 C22.86 68.8 23.44 66.78 23.44 64.62 C23.44          62.47 22.86 60.45 21.84 58.71 C20.82 56.97 19.37 55.52 17.63 54.5 C15.9 53.49 13.88 52.9 11.72 52.9          C9.57 52.9 7.54 53.49 5.81 54.5 C5.74 54.55 5.67 54.59 5.6 54.63 C5.51 54.69 5.42 54.74 5.33 54.8          C5.17 54.91 5.01 55.01 4.86 55.12 C4.81 55.16 4.76 55.2 4.71 55.23 C4.66 55.27 4.61 55.31 4.55 55.35          C4.51 55.39 4.46 55.43 4.41 55.47 C4.31 55.54 4.22 55.62 4.13 55.7 C3.65 56.11 3.21 56.55 2.8 57.03          C2.72 57.12 2.64 57.21 2.57 57.31 C2.53 57.36 2.49 57.41 2.45 57.45 C2.41 57.51 2.37 57.56 2.33          57.61 C2.3 57.66 2.26 57.71 2.22 57.76 C2.11 57.92 2 58.07 1.9 58.23 C1.84 58.32 1.79 58.41 1.73          58.5 C1.69 58.57 1.65 58.64 1.6 58.71 C0.59 60.45 0 62.47 0 64.62 C0 66.78 0.59 68.8 1.6 70.54 C2.62          72.27 4.07 73.72 5.81 74.74 C7.54 75.76 9.57 76.34 11.72 76.34 C13.88 76.34 15.9 75.76 17.63 74.74          C17.74 74.68 17.85 74.61 17.96 74.54 C18.01 74.51 18.06 74.48 18.12 74.44 C18.19 74.39 18.26 74.35          18.33 74.3 C18.34 74.29 18.36 74.28 18.37 74.27 C18.44 74.22 18.51 74.17 18.58 74.12 C18.68 74.05          18.79 73.97 18.89 73.89 L20.7 75.7 C20.31 76.02 19.91 76.32 19.48 76.59 L24.4 81.5 C24.98 82.08          25.74 82.37 26.5 82.37 C27.26 82.37 28.02 82.08 28.6 81.5 C29.76 80.34 29.76 78.46 28.6 77.3 ZM16.39          71.51 C16.36 71.53 16.34 71.54 16.32 71.56 C16.29 71.58 16.26 71.6 16.23 71.61 C16.21 71.63 16.18          71.65 16.16 71.66 C16.12 71.68 16.09 71.71 16.06 71.72 C16.03 71.74 15.99 71.76 15.96 71.78 C15.9          71.82 15.83 71.86 15.76 71.9 C15.76 71.9 15.75 71.9 15.74 71.91 C15.69 71.94 15.63 71.97 15.58 72          C15.56 72.01 15.53 72.02 15.51 72.03 C15.47 72.06 15.42 72.08 15.38 72.1 C15.29 72.14 15.2 72.18          15.12 72.22 C14.08 72.69 12.93 72.95 11.72 72.95 C10.51 72.95 9.36 72.69 8.33 72.22 C6.46 71.39          4.96 69.88 4.12 68.02 C3.66 66.98 3.4 65.83 3.4 64.62 C3.4 63.41 3.66 62.26 4.12 61.23 C4.25 60.94          4.4 60.65 4.56 60.38 C4.58 60.35 4.6 60.32 4.62 60.29 C4.67 60.2 4.73 60.11 4.78 60.03 C4.82 59.98          4.85 59.93 4.88 59.88 C4.92 59.82 4.96 59.77 5.01 59.71 C5.07 59.62 5.14 59.53 5.21 59.44 C5.6 58.95          6.05 58.5 6.54 58.11 C6.63 58.04 6.72 57.97 6.81 57.91 C6.87 57.86 6.92 57.82 6.98 57.78 C7.03 57.75          7.08 57.72 7.13 57.69 C7.21 57.63 7.3 57.57 7.39 57.52 C7.42 57.5 7.45 57.48 7.48 57.46 C7.75 57.3          8.04 57.15 8.33 57.02 C9.36 56.56 10.51 56.3 11.72 56.3 C12.93 56.3 14.08 56.56 15.12 57.02 C16.98          57.86 18.48 59.36 19.32 61.23 C19.79 62.26 20.05 63.41 20.05 64.62 C20.05 65.83 19.79 66.98 19.32          68.02 C19.28 68.1 19.24 68.19 19.2 68.28 C19.18 68.32 19.15 68.37 19.13 68.41 C19.12 68.43 19.11          68.46 19.1 68.48 C19.07 68.53 19.04 68.59 19.01 68.65 C19 68.65 19 68.66 19 68.66 C18.96 68.73 18.92          68.8 18.88 68.86 C18.86 68.9 18.84 68.93 18.82 68.96 C18.8 68.99 18.78 69.02 18.76 69.06 C18.75          69.08 18.73 69.11 18.71 69.13 C18.7 69.16 18.68 69.19 18.66 69.22 C18.64 69.24 18.63 69.26 18.61          69.29 C18.59 69.31 18.58 69.34 18.56 69.36 C18.55 69.37 18.54 69.39 18.53 69.4 C18.51 69.43 18.49          69.46 18.47 69.49 C18.32 69.7 18.15 69.91 17.98 70.11 C17.95 70.14 17.91 70.18 17.88 70.21 C17.84          70.26 17.8 70.31 17.76 70.35 C17.71 70.4 17.66 70.45 17.6 70.51 C17.55 70.56 17.5 70.61 17.45 70.66          C17.41 70.7 17.36 70.74 17.31 70.78 C17.28 70.81 17.24 70.85 17.21 70.88 C17.01 71.05 16.8 71.22          16.59 71.37 C16.56 71.39 16.53 71.41 16.5 71.43 C16.49 71.44 16.47 71.45 16.46 71.46 C16.44 71.48          16.41 71.49 16.39 71.51 Z"
   class="st2"
   id="path30" />
				</g>
			</g>
		</g>
	</g>
</svg>
