<?xml version="1.0" encoding="UTF-8" standalone="no"?>
<!-- Generator: Adobe Illustrator 12.0.1, SVG Export Plug-In . SVG Version: 6.00 Build 51448)  -->
<svg xmlns:dc="http://purl.org/dc/elements/1.1/" xmlns:cc="http://creativecommons.org/ns#" xmlns:rdf="http://www.w3.org/1999/02/22-rdf-syntax-ns#" xmlns:svg="http://www.w3.org/2000/svg" xmlns="http://www.w3.org/2000/svg" xmlns:sodipodi="http://sodipodi.sourceforge.net/DTD/sodipodi-0.dtd" xmlns:inkscape="http://www.inkscape.org/namespaces/inkscape" version="1.1" width="256" height="209.12521" viewBox="0 0 256 209.12521" overflow="visible" enable-background="new 0 0 571.5 632.057" xml:space="preserve" id="svg2" inkscape:version="0.47 r22583" sodipodi:docname="GDALLogoColor.svg" style="overflow:visible"><metadata id="metadata81"><rdf:RDF><cc:Work rdf:about=""><dc:format>image/svg+xml</dc:format><dc:type rdf:resource="http://purl.org/dc/dcmitype/StillImage"/></cc:Work></rdf:RDF></metadata><defs id="defs79"><inkscape:perspective sodipodi:type="inkscape:persp3d" inkscape:vp_x="0 : 316.0285 : 1" inkscape:vp_y="0 : 1000 : 0" inkscape:vp_z="571.5 : 316.0285 : 1" inkscape:persp3d-origin="285.75 : 210.68567 : 1" id="perspective83"/>
	
	
	
	
	
	
	
	
	
		
	
	
	
	
	
</defs><sodipodi:namedview pagecolor="#ffffff" bordercolor="#666666" borderopacity="1" objecttolerance="10" gridtolerance="10" guidetolerance="10" inkscape:pageopacity="0" inkscape:pageshadow="2" inkscape:window-width="1024" inkscape:window-height="544" id="namedview77" showgrid="false" inkscape:zoom="1.6210384" inkscape:cx="128" inkscape:cy="104.56261" inkscape:window-x="-4" inkscape:window-y="-4" inkscape:window-maximized="1" inkscape:current-layer="svg2"/>
<g id="Layer_5" transform="translate(460.18617,41.20343)">
</g>

<g id="g2903" transform="matrix(1.021638,0,0,1.021638,470.14366,37.569946)"><polygon transform="matrix(-1,0,0,1,-196.32616,-36.774226)" points="168.93,51.652 249.699,0 263.86,51.352 183.091,103.005 " id="polygon55" style="fill:#666667"/><path d="m -372.30916,77.622774 c 0,0 12.522,3.461 23.303,9.845 10.781,6.384 19.823,15.692996 19.823,15.692996 l 34.207,-57.499996 c 0,0 -6.653,-12.348 -17.642,-18.854 -10.565,-6.257 -25.482,-6.683 -25.482,-6.683 l -34.209,57.499 z" id="path57"/><path d="m -348.81916,99.750774 c -19.72,-12.891 -41.243,-20.098 -49.737,-16.902 5.473,-2.507 27.143,-10.826 50.188,2.244 23.858,13.531 26.183,34.556996 26.165,42.378996 -1.076,-6.775 -11.099,-17.577 -26.616,-27.720996 z" id="path59" style="fill:#666667"/><path d="m -402.09916,88.708774 c -0.139,-0.985 -0.084,-1.885 0.177,-2.681 0.111,-0.342 0.26,-0.665 0.448,-0.967 0.125,-0.201 0.267,-0.394 0.427,-0.578 0.318,-0.367 0.707,-0.697 1.167,-0.988 1.379,-0.871 3.304,-1.323 5.658,-1.393 0.392,-0.012 0.796,-0.012 1.212,-0.003 0.831,0.018 1.708,0.08 2.626,0.18 0.459,0.051 0.929,0.112 1.408,0.182 0.24,0.035 0.481,0.073 0.727,0.114 0.488,0.081 0.987,0.171 1.494,0.271 0.254,0.051 0.51,0.102 0.769,0.157 0.516,0.109 1.041,0.229 1.574,0.358 10.13,2.447 23.218,8.3 35.594,16.39 12.051,7.875996 20.788,16.151996 24.596,22.629996 0.205,0.349 0.397,0.694 0.573,1.034 0.177,0.339 0.339,0.673 0.486,1.001 0.146,0.328 0.278,0.65 0.396,0.965 0.41,1.104 0.634,2.131 0.66,3.066 0.008,0.268 -10e-4,0.527 -0.026,0.78 -0.147,1.511 -0.884,2.74 -2.263,3.611 -7.357,4.647 -30.218,-2.63 -51.062,-16.256 -0.651,-0.426 -1.293,-0.853 -1.924,-1.28 -14.533,-9.838 -23.808,-20.106996 -24.717,-26.592996 z" id="path61" style="fill:#989898"/><rect x="318.13303" y="-171.72858" transform="matrix(-0.70208918,0.71208903,0.71208903,0.70208918,0,0)" width="49.895771" height="2.4550378" id="rect63"/><rect x="-232.8824" y="334.53503" transform="matrix(0.24909464,-0.96847915,-0.96847915,-0.24909464,0,0)" width="49.895077" height="2.4540529" id="rect65"/><path d="m -379.06216,135.42277 22.197,-40.318996 c 0.891,0.273 1.691,0.455 2.214,1.07 l -22.261,40.432996 -2.15,-1.184 z" id="path67"/><circle transform="matrix(-1,0,0,1,-196.32616,-36.774226)" cx="184.314" cy="176.851" r="6.6620002" id="circle69" d="m 190.976,176.851 c 0,3.67932 -2.98268,6.662 -6.662,6.662 -3.67933,0 -6.662,-2.98268 -6.662,-6.662 0,-3.67932 2.98267,-6.662 6.662,-6.662 3.67932,0 6.662,2.98268 6.662,6.662 z" sodipodi:cx="184.314" sodipodi:cy="176.851" sodipodi:rx="6.6620002" sodipodi:ry="6.6620002"/><polygon transform="matrix(-1,0,0,1,-196.32616,-36.774226)" points="13.282,152.997 96.979,99.375 110.624,151.075 26.927,204.696 " id="polygon71" style="fill:#666667"/><path d="m -293.80516,91.426774 -2.529,3.574 -23.545,-15.261 c 0.268,-0.568 2.182,-3.293 2.52,-3.79 l 23.554,15.477 z" id="path73"/><path d="m -354.31216,52.726774 -2.529,3.574 -23.546,-15.261 c 0.269,-0.569 2.182,-3.294 2.521,-3.791 l 23.554,15.478 z" id="path75"/></g>
</svg>